<?xml version="1.0" encoding="UTF-8"?>
<svg width="200" height="200" viewBox="0 0 200 200" xmlns="http://www.w3.org/2000/svg">
  <defs>
    <linearGradient id="bg" x1="0%" y1="0%" x2="100%" y2="100%">
      <stop offset="0%" style="stop-color:#F5F5F5"/>
      <stop offset="100%" style="stop-color:#E0E0E0"/>
    </linearGradient>
  </defs>
  <rect width="200" height="200" fill="url(#bg)"/>
  <g transform="translate(70,60)" fill="#9E9E9E">
    <path d="M30,0 C13.4315,0 0,13.4315 0,30 C0,46.5685 13.4315,60 30,60 C46.5685,60 60,46.5685 60,30 C60,13.4315 46.5685,0 30,0 Z M30,54 C16.7452,54 6,43.2548 6,30 C6,16.7452 16.7452,6 30,6 C43.2548,6 54,16.7452 54,30 C54,43.2548 43.2548,54 30,54 Z"/>
    <path d="M30,18 C25.5817,18 22,21.5817 22,26 C22,30.4183 25.5817,34 30,34 C34.4183,34 38,30.4183 38,26 C38,21.5817 34.4183,18 30,18 Z M30,28 C28.8954,28 28,27.1046 28,26 C28,24.8954 28.8954,24 30,24 C31.1046,24 32,24.8954 32,26 C32,27.1046 31.1046,28 30,28 Z"/>
    <path d="M42,36 L18,36 C16.8954,36 16,36.8954 16,38 L16,48 C16,49.1046 16.8954,50 18,50 L42,50 C43.1046,50 44,49.1046 44,48 L44,38 C44,36.8954 43.1046,36 42,36 Z M38,44 L22,44 L22,42 L38,42 L38,44 Z"/>
  </g>
</svg>